<?xml version="1.0" standalone="no"?>
<!DOCTYPE svg PUBLIC "-//W3C//DTD SVG 20010904//EN"
 "http://www.w3.org/TR/2001/REC-SVG-20010904/DTD/svg10.dtd">
<svg version="1.0" xmlns="http://www.w3.org/2000/svg"
 width="1025.000000pt" height="668.000000pt" viewBox="0 0 1025.000000 668.000000"
 preserveAspectRatio="xMidYMid meet">

<g transform="translate(0.000000,668.000000) scale(0.100000,-0.100000)"
fill="#000000" stroke="none">
<path d="M2602 5854 c-67 -33 -99 -73 -173 -217 -77 -148 -114 -195 -177 -230
-73 -40 -147 -34 -199 15 l-22 21 -11 -27 c-12 -34 -12 -42 1 -89 45 -163 275
-182 435 -35 51 47 78 98 89 168 10 68 25 99 56 115 38 20 46 19 73 -12 21
-25 23 -34 18 -114 -4 -77 -2 -92 21 -142 17 -38 37 -63 64 -81 45 -29 139
-56 200 -56 40 0 44 3 64 42 l21 42 14 -33 c7 -17 23 -64 35 -104 12 -40 28
-90 37 -112 l16 -39 13 49 c22 86 17 158 -17 235 -37 83 -39 146 -9 200 21 37
81 80 113 80 21 0 20 15 -3 66 -19 42 -63 84 -87 84 -8 0 -26 13 -41 30 -43
49 -145 65 -226 36 -36 -13 -37 -13 -50 12 -7 16 -25 30 -44 36 -18 5 -35 17
-38 27 -10 29 -55 59 -89 59 -18 0 -55 -12 -84 -26z"/>
<path d="M7735 5819 c-111 -25 -228 -91 -298 -169 -56 -62 -112 -170 -132
-251 -17 -73 -20 -189 -5 -189 6 0 10 31 10 73 0 146 48 257 159 368 114 114
222 159 382 159 130 0 244 -41 342 -122 26 -22 53 -38 59 -36 17 6 -85 84
-154 119 -105 53 -253 73 -363 48z"/>
<path d="M5768 5391 c-186 -41 -325 -118 -468 -261 -111 -111 -171 -202 -215
-323 -34 -93 -37 -107 -28 -107 5 0 17 26 27 58 79 250 287 471 536 571 107
42 212 61 340 61 184 0 337 -43 488 -137 81 -50 110 -53 38 -4 -71 49 -203
109 -291 132 -117 30 -312 35 -427 10z"/>
<path d="M2848 5081 c-31 -3 -62 -11 -69 -18 -6 -6 -12 -41 -14 -78 -2 -37 -5
-68 -7 -69 -2 -2 -32 -22 -68 -46 -115 -75 -161 -129 -193 -222 -12 -38 -14
-76 -10 -200 4 -128 1 -185 -21 -354 -14 -110 -26 -216 -26 -235 0 -19 -7 -62
-17 -94 -9 -33 -17 -91 -18 -130 -1 -38 -10 -95 -20 -125 -22 -71 -34 -290
-15 -290 10 0 11 -17 6 -72 -13 -138 -25 -324 -36 -533 -12 -238 -22 -301 -56
-364 -18 -32 -23 -53 -18 -73 4 -19 0 -37 -10 -53 -9 -13 -16 -39 -16 -57 -1
-18 -18 -158 -39 -311 -38 -274 -39 -279 -74 -331 -19 -29 -37 -63 -39 -76 -3
-22 3 -24 105 -45 l108 -21 20 38 c11 21 71 174 134 339 63 166 130 330 149
364 22 40 33 71 29 84 -5 21 256 921 267 921 3 0 14 -163 24 -362 9 -200 22
-399 28 -443 6 -44 12 -105 13 -135 1 -30 7 -73 13 -95 6 -22 21 -194 33 -382
17 -282 19 -351 9 -393 -7 -28 -11 -52 -9 -54 8 -6 172 -26 177 -21 9 8 23
105 68 460 33 260 43 376 39 418 -6 45 -3 63 10 83 16 25 16 29 0 65 -21 46
-20 61 43 419 43 247 46 277 46 445 1 194 -10 278 -51 418 -21 69 -31 88 -47
92 -84 18 -593 38 -686 27 -41 -5 -76 -8 -78 -7 -7 6 37 100 49 106 8 4 133
33 279 64 256 56 462 108 488 124 11 6 10 30 -2 120 -22 154 -25 146 39 110
30 -17 60 -27 67 -23 96 53 297 189 300 202 3 10 22 23 44 30 37 11 42 17 102
137 34 69 62 129 62 133 0 4 -22 26 -49 49 l-50 43 -69 -40 c-39 -23 -82 -56
-97 -75 -14 -20 -41 -42 -60 -49 -19 -8 -64 -37 -101 -66 -37 -28 -72 -49 -77
-47 -6 2 -32 63 -59 137 -97 269 -97 269 -136 295 -20 14 -49 25 -65 25 -36 0
-63 14 -104 53 -26 24 -33 39 -33 68 0 57 -11 99 -29 108 -24 12 -119 19 -183
12z"/>
<path d="M8081 4621 c-42 -27 8 -31 359 -31 351 0 401 4 359 31 -8 5 -169 9
-359 9 -190 0 -351 -4 -359 -9z"/>
<path d="M8081 4531 c-27 -17 1 -31 64 -31 63 0 91 14 64 31 -8 5 -36 9 -64 9
-27 0 -56 -4 -64 -9z"/>
<path d="M6567 4503 c-4 -3 -7 -12 -7 -20 0 -11 73 -13 401 -13 376 0 400 1
397 18 -3 16 -31 17 -394 20 -215 1 -393 -1 -397 -5z"/>
<path d="M8081 4441 c-36 -23 5 -31 165 -31 152 0 165 1 162 18 -3 15 -20 17
-158 19 -85 2 -161 -1 -169 -6z"/>
<path d="M6567 4403 c-4 -3 -7 -12 -7 -20 0 -11 53 -13 298 -11 256 3 297 5
297 18 0 13 -40 15 -291 18 -160 1 -293 -1 -297 -5z"/>
<path d="M6560 4290 c0 -20 4 -20 183 -18 154 3 182 5 182 18 0 13 -28 15
-182 18 -179 2 -183 2 -183 -18z"/>
<path d="M3952 4108 c-18 -18 -14 -56 7 -68 13 -7 274 -10 776 -10 502 0 763
3 776 10 21 12 25 50 7 68 -17 17 -1549 17 -1566 0z"/>
<path d="M8287 3986 c-40 -642 -468 -1208 -1074 -1419 -343 -120 -729 -120
-1061 -2 -111 40 -102 38 -102 26 0 -13 230 -87 335 -108 140 -28 473 -25 615
6 502 108 909 420 1130 866 102 205 147 359 170 575 12 118 12 160 2 160 -5 0
-12 -47 -15 -104z"/>
<path d="M3958 3919 c-21 -12 -24 -49 -6 -67 17 -17 1549 -17 1566 0 18 18 14
56 -7 68 -27 14 -1529 13 -1553 -1z"/>
<path d="M3946 3714 c-12 -33 -6 -55 20 -64 14 -6 162 -10 347 -10 276 0 326
2 345 16 24 17 29 43 10 62 -9 9 -104 12 -364 12 -312 0 -353 -2 -358 -16z"/>
<path d="M2039 998 c-31 -99 -33 -114 -20 -120 34 -15 57 -8 68 20 9 25 11 25
17 7 4 -11 11 -27 15 -35 18 -34 223 -55 235 -24 3 9 6 18 6 20 0 3 -32 39
-71 80 -66 70 -71 78 -65 108 8 40 5 41 -85 51 l-65 7 -35 -114z"/>
<path d="M3083 1063 c-60 -5 -58 0 -68 -145 l-7 -88 35 0 c30 0 36 4 42 28 l7
27 14 -27 15 -28 114 0 c66 0 116 4 120 10 14 22 -9 49 -85 101 -71 48 -79 58
-82 89 -3 39 -7 40 -105 33z"/>
</g>
</svg>
